# xmcd CD database file
#
# Track frame offsets:
#	150
#	21742
#	40020
#
# Disc length: 827 seconds
#
# Revision: 3
# Processed by: cddbd v1.4PL0 Copyright (c) Steve Scherf et al.
# Submitted via: CDex 1.40Beta9
#
DISCID=20033903
DTITLE=Sonata Arctica - Live at Provissirock Festival
DYEAR=2001
DGENRE=Metal
TTITLE0=Replica
TTITLE1=UnOpened
TTITLE2=Full Moon
EXTD=YEAR: 2001 ID3G: 9
EXTT0=
EXTT1=
EXTT2=
PLAYORDER=
